<svg width="136" height="22" viewBox="0 0 136 22" fill="none" xmlns="http://www.w3.org/2000/svg">
<ellipse cx="7.99996" cy="11" rx="7.99996" ry="7.99999" fill="#E3EEFF"/>
<ellipse cx="8.05925" cy="11.059" rx="4.26664" ry="4.26666" fill="#2C7EF8"/>
<path d="M35.1359 17V6.528L32.9599 7.832V6.776L35.1359 5.48H36.0639V17H35.1359ZM38.7843 17L38.8003 16.12L44.0963 11.312C44.5656 10.8907 44.8723 10.488 45.0163 10.104C45.1603 9.71467 45.2323 9.29867 45.2323 8.856C45.2323 8.35467 45.1123 7.89867 44.8723 7.488C44.6323 7.07733 44.307 6.752 43.8963 6.512C43.491 6.26667 43.035 6.144 42.5283 6.144C42.011 6.144 41.547 6.26933 41.1363 6.52C40.7256 6.77067 40.4003 7.10133 40.1603 7.512C39.9256 7.92267 39.8083 8.37067 39.8083 8.856H38.8803C38.8803 8.17867 39.043 7.568 39.3683 7.024C39.6936 6.47467 40.131 6.04 40.6803 5.72C41.235 5.4 41.8536 5.24 42.5363 5.24C43.2243 5.24 43.8403 5.40533 44.3843 5.736C44.9336 6.06133 45.3683 6.49867 45.6883 7.048C46.0083 7.59733 46.1683 8.20267 46.1683 8.864C46.1683 9.32267 46.115 9.73333 46.0083 10.096C45.907 10.4533 45.7443 10.7893 45.5203 11.104C45.2963 11.4133 45.0083 11.7253 44.6563 12.04L39.6563 16.576L39.4643 16.096H46.1683V17H38.7843ZM51.4518 17V5.24H52.3718V17H51.4518ZM58.3362 17.24C57.5095 17.24 56.7949 17.056 56.1922 16.688C55.5895 16.3147 55.1229 15.7893 54.7922 15.112C54.4615 14.4293 54.2962 13.624 54.2962 12.696C54.2962 11.752 54.4589 10.9387 54.7842 10.256C55.1149 9.568 55.5789 9.04 56.1762 8.672C56.7789 8.304 57.4935 8.12 58.3202 8.12C59.1575 8.12 59.8722 8.312 60.4642 8.696C61.0615 9.07467 61.5149 9.624 61.8242 10.344C62.1389 11.064 62.2882 11.9307 62.2722 12.944H61.3122V12.624C61.2855 11.44 61.0189 10.5387 60.5122 9.92C60.0055 9.30133 59.2802 8.992 58.3362 8.992C57.3602 8.992 56.6055 9.31467 56.0722 9.96C55.5442 10.6 55.2802 11.5067 55.2802 12.68C55.2802 13.8427 55.5442 14.744 56.0722 15.384C56.6055 16.024 57.3549 16.344 58.3202 16.344C58.9869 16.344 59.5682 16.1893 60.0642 15.88C60.5655 15.5653 60.9629 15.1173 61.2562 14.536L62.0882 14.904C61.7415 15.6507 61.2402 16.2267 60.5842 16.632C59.9282 17.0373 59.1789 17.24 58.3362 17.24ZM54.9282 12.944V12.112H61.7522V12.944H54.9282ZM64.9378 17V7.552C64.9378 7.328 64.9485 7.11467 64.9698 6.912C64.9965 6.70933 65.0471 6.51733 65.1218 6.336C65.2018 6.15467 65.3138 5.984 65.4578 5.824C65.6071 5.664 65.7725 5.54133 65.9538 5.456C66.1405 5.37067 66.3378 5.31467 66.5458 5.288C66.7538 5.256 66.9725 5.24 67.2018 5.24H68.3138V6.04H67.2818C66.8071 6.04 66.4498 6.15467 66.2098 6.384C65.9751 6.61333 65.8578 6.992 65.8578 7.52V17H64.9378ZM63.4018 9.2V8.36H68.3138V9.2H63.4018ZM74.1727 17C73.714 17.1013 73.2607 17.1387 72.8127 17.112C72.3647 17.0907 71.9647 16.992 71.6127 16.816C71.266 16.6347 71.0047 16.3573 70.8287 15.984C70.6847 15.68 70.6047 15.3733 70.5887 15.064C70.5727 14.7547 70.5647 14.4 70.5647 14V5.96H71.4927V13.984C71.4927 14.3467 71.4954 14.648 71.5007 14.888C71.5114 15.1227 71.5674 15.3387 71.6687 15.536C71.8607 15.904 72.1647 16.128 72.5807 16.208C72.9967 16.2827 73.5274 16.2693 74.1727 16.168V17ZM68.6287 9.2V8.36H74.1727V9.2H68.6287ZM79.1862 6.616V5.44H80.1062V6.616H79.1862ZM79.1862 17V8.36H80.1062V17H79.1862ZM88.8386 17V12.504C88.8386 11.96 88.7826 11.4747 88.6706 11.048C88.5639 10.6213 88.3986 10.2587 88.1746 9.96C87.9559 9.66133 87.6786 9.43467 87.3426 9.28C87.0119 9.12533 86.6199 9.048 86.1666 9.048C85.6972 9.048 85.2892 9.13067 84.9426 9.296C84.6012 9.456 84.3186 9.68267 84.0946 9.976C83.8759 10.2693 83.7106 10.6187 83.5986 11.024C83.4919 11.424 83.4386 11.8613 83.4386 12.336L82.7106 12.248C82.7106 11.3147 82.8679 10.5467 83.1826 9.944C83.5026 9.336 83.9319 8.888 84.4706 8.6C85.0092 8.30667 85.6146 8.16 86.2866 8.16C86.7612 8.16 87.1852 8.22933 87.5586 8.368C87.9372 8.50667 88.2652 8.704 88.5426 8.96C88.8199 9.21067 89.0492 9.50933 89.2306 9.856C89.4119 10.1973 89.5452 10.5733 89.6306 10.984C89.7212 11.3947 89.7666 11.824 89.7666 12.272V17H88.8386ZM82.5106 17V8.36H83.3506V10.304H83.4386V17H82.5106ZM98.9538 17.24C98.1645 17.24 97.4525 17.1093 96.8178 16.848C96.1885 16.5867 95.6658 16.216 95.2498 15.736C94.8391 15.256 94.5645 14.6853 94.4258 14.024L95.3698 13.864C95.5671 14.632 95.9885 15.2373 96.6338 15.68C97.2845 16.1227 98.0658 16.344 98.9778 16.344C99.5965 16.344 100.143 16.2453 100.618 16.048C101.092 15.8507 101.463 15.5733 101.73 15.216C101.996 14.8533 102.13 14.432 102.13 13.952C102.13 13.6053 102.066 13.3147 101.938 13.08C101.815 12.8453 101.655 12.6533 101.458 12.504C101.26 12.3493 101.05 12.2267 100.826 12.136C100.602 12.04 100.391 11.9627 100.194 11.904L97.2978 11.04C96.9138 10.928 96.5698 10.7893 96.2658 10.624C95.9671 10.4533 95.7138 10.2587 95.5058 10.04C95.3031 9.816 95.1458 9.56267 95.0338 9.28C94.9271 8.99733 94.8738 8.68267 94.8738 8.336C94.8738 7.71733 95.0391 7.176 95.3698 6.712C95.7005 6.248 96.1538 5.888 96.7298 5.632C97.3111 5.37067 97.9778 5.24 98.7298 5.24C99.4871 5.24533 100.167 5.38667 100.77 5.664C101.372 5.936 101.866 6.32267 102.25 6.824C102.639 7.32533 102.89 7.92 103.002 8.608L102.05 8.776C101.975 8.248 101.783 7.78667 101.474 7.392C101.17 6.99733 100.78 6.69067 100.306 6.472C99.8311 6.25333 99.3031 6.144 98.7218 6.144C98.1618 6.13867 97.6658 6.232 97.2338 6.424C96.8071 6.616 96.4711 6.87467 96.2258 7.2C95.9805 7.52533 95.8578 7.89333 95.8578 8.304C95.8578 8.73067 95.9725 9.072 96.2018 9.328C96.4365 9.57867 96.7218 9.776 97.0578 9.92C97.3991 10.064 97.7245 10.1813 98.0338 10.272L100.354 10.96C100.572 11.024 100.834 11.1147 101.138 11.232C101.442 11.3493 101.74 11.5173 102.034 11.736C102.327 11.9493 102.57 12.2347 102.762 12.592C102.959 12.944 103.058 13.3867 103.058 13.92C103.058 14.4373 102.959 14.9013 102.762 15.312C102.564 15.7227 102.282 16.072 101.914 16.36C101.546 16.6427 101.111 16.8587 100.61 17.008C100.108 17.1627 99.5565 17.24 98.9538 17.24ZM109.266 17C108.808 17.1013 108.354 17.1387 107.906 17.112C107.458 17.0907 107.058 16.992 106.706 16.816C106.36 16.6347 106.098 16.3573 105.922 15.984C105.778 15.68 105.698 15.3733 105.682 15.064C105.666 14.7547 105.658 14.4 105.658 14V5.96H106.586V13.984C106.586 14.3467 106.589 14.648 106.594 14.888C106.605 15.1227 106.661 15.3387 106.762 15.536C106.954 15.904 107.258 16.128 107.674 16.208C108.09 16.2827 108.621 16.2693 109.266 16.168V17ZM103.722 9.2V8.36H109.266V9.2H103.722ZM114.18 17.24C113.321 17.24 112.593 17.0453 111.996 16.656C111.398 16.2667 110.942 15.728 110.628 15.04C110.313 14.352 110.156 13.56 110.156 12.664C110.156 11.7627 110.316 10.9707 110.636 10.288C110.956 9.6 111.414 9.06667 112.012 8.688C112.614 8.30933 113.337 8.12 114.18 8.12C115.038 8.12 115.766 8.31467 116.364 8.704C116.966 9.088 117.422 9.62133 117.732 10.304C118.046 10.9867 118.204 11.7733 118.204 12.664C118.204 13.576 118.046 14.376 117.732 15.064C117.417 15.7467 116.958 16.28 116.356 16.664C115.753 17.048 115.028 17.24 114.18 17.24ZM114.18 16.344C115.198 16.344 115.958 16.0027 116.46 15.32C116.966 14.6373 117.22 13.752 117.22 12.664C117.22 11.5547 116.966 10.6693 116.46 10.008C115.953 9.34667 115.193 9.016 114.18 9.016C113.492 9.016 112.924 9.17333 112.476 9.488C112.028 9.79733 111.692 10.2267 111.468 10.776C111.249 11.32 111.14 11.9493 111.14 12.664C111.14 13.7733 111.396 14.664 111.908 15.336C112.425 16.008 113.182 16.344 114.18 16.344ZM123.492 17.24C122.628 17.24 121.9 17.048 121.308 16.664C120.716 16.2747 120.265 15.7387 119.956 15.056C119.652 14.368 119.494 13.576 119.484 12.68C119.494 11.768 119.654 10.9707 119.964 10.288C120.278 9.6 120.732 9.06667 121.324 8.688C121.916 8.30933 122.641 8.12 123.5 8.12C124.337 8.12 125.073 8.32267 125.708 8.728C126.348 9.128 126.79 9.68 127.036 10.384L126.14 10.712C125.921 10.1733 125.577 9.75733 125.108 9.464C124.638 9.16533 124.1 9.016 123.492 9.016C122.809 9.016 122.246 9.17333 121.804 9.488C121.361 9.79733 121.03 10.2267 120.812 10.776C120.593 11.3253 120.478 11.96 120.468 12.68C120.484 13.784 120.742 14.672 121.244 15.344C121.75 16.0107 122.5 16.344 123.492 16.344C124.105 16.344 124.636 16.2027 125.084 15.92C125.537 15.6373 125.884 15.2267 126.124 14.688L127.036 15C126.7 15.7307 126.23 16.288 125.628 16.672C125.025 17.0507 124.313 17.24 123.492 17.24ZM128.714 17V5.48H129.642V12.52L133.73 8.36H135.018L130.738 12.68L135.626 17H134.194L129.642 12.84V17H128.714Z" fill="#37465A"/>
</svg>
